<?xml version="1.0" encoding="UTF-8" standalone="no"?>
<svg
   xmlns:dc="http://purl.org/dc/elements/1.1/"
   xmlns:cc="http://creativecommons.org/ns#"
   xmlns:rdf="http://www.w3.org/1999/02/22-rdf-syntax-ns#"
   xmlns:svg="http://www.w3.org/2000/svg"
   xmlns="http://www.w3.org/2000/svg"
   xmlns:sodipodi="http://sodipodi.sourceforge.net/DTD/sodipodi-0.dtd"
   xmlns:inkscape="http://www.inkscape.org/namespaces/inkscape"
   id="Layer_1"
   data-name="Layer 1"
   viewBox="0 0 467.76595 121.98789"
   version="1.1"
   sodipodi:docname="amaris-hotel.svg"
   width="467.76593"
   height="121.98788"
   inkscape:version="0.92.3 (2405546, 2018-03-11)">
  <metadata
     id="metadata1113">
    <rdf:RDF>
      <cc:Work
         rdf:about="">
        <dc:format>image/svg+xml</dc:format>
        <dc:type
           rdf:resource="http://purl.org/dc/dcmitype/StillImage" />
        <dc:title>amaris-hotel</dc:title>
      </cc:Work>
    </rdf:RDF>
  </metadata>
  <sodipodi:namedview
     pagecolor="#ffffff"
     bordercolor="#666666"
     borderopacity="1"
     objecttolerance="10"
     gridtolerance="10"
     guidetolerance="10"
     inkscape:pageopacity="0"
     inkscape:pageshadow="2"
     inkscape:window-width="1366"
     inkscape:window-height="745"
     id="namedview1111"
     showgrid="false"
     fit-margin-top="0"
     fit-margin-left="0"
     fit-margin-right="0"
     fit-margin-bottom="0"
     inkscape:zoom="0.54156102"
     inkscape:cx="86.871327"
     inkscape:cy="53.60789"
     inkscape:window-x="-8"
     inkscape:window-y="-8"
     inkscape:window-maximized="1"
     inkscape:current-layer="Layer_1" />
  <defs
     id="defs1062">
    <style
       id="style1060">.cls-1{fill:#58574b;}.cls-2{fill:#ec1c24;}.cls-3{fill:#808184;}</style>
  </defs>
  <title
     id="title1064">amaris-hotel</title>
  <path
     class="cls-1"
     d="M 69.699719,79.25288 H 62.742235 V 69.557001 H 62.43896 C 57.185167,76.434207 45.740998,80.412461 35.233413,80.412461 13.593854,80.412461 0,67.683833 0,51.868936 0,36.054039 13.442216,24.065759 34.930138,24.065759 c 10.971417,0 21.479002,3.737418 27.508822,10.516505 h 0.312195 v -9.303405 h 6.957484 V 79.24396 Z M 6.9485643,51.913535 c 0,12.380754 10.8197797,23.593007 28.1242917,23.593007 18.241096,0 28.133211,-11.212253 28.133211,-24.181717 0,-12.487792 -11.283612,-22.299628 -28.597043,-22.299628 -16.385768,0 -27.6515399,11.212253 -27.6515399,22.897258 z"
     id="path1066"
     inkscape:connector-curvature="0"
     style="fill:#58574b;stroke-width:0.89198512" />
  <path
     class="cls-1"
     d="m 87.539422,32.057946 h 0.312195 c 3.246826,-5.021876 10.355947,-7.947588 17.928903,-7.947588 9.12501,0 16.38577,3.505502 20.09642,9.811837 3.8623,-6.422293 11.74745,-9.811837 20.86354,-9.811837 18.39273,0 22.10339,9.463963 22.10339,21.256006 V 79.2618 h -6.95749 V 44.670616 c 0,-8.295462 -1.69477,-15.654339 -15.29754,-15.654339 -14.83371,0 -18.39274,9.811836 -18.39274,19.159841 V 79.24396 h -6.95748 V 45.955075 c 0,-8.41142 -2.00697,-16.947718 -15.92193,-16.947718 -14.994274,0 -17.777268,11.800963 -17.777268,20.515658 V 79.190441 H 80.581938 V 25.22534 h 6.957484 v 6.779087 z"
     id="path1068"
     inkscape:connector-curvature="0"
     style="fill:#58574b;stroke-width:0.89198512" />
  <path
     class="cls-1"
     d="m 248.00755,79.25288 h -6.95749 v -9.695879 h -0.31219 c -5.25379,6.895046 -16.68904,10.864379 -27.20555,10.864379 -21.63956,0 -35.24233,-12.728628 -35.24233,-28.543524 0,-15.814897 13.45114,-27.803177 34.93014,-27.803177 10.97142,0 21.479,3.737418 27.50882,10.516505 h 0.3122 v -9.312325 h 6.95748 V 79.24396 Z M 185.26531,51.913535 c 0,12.380754 10.81978,23.593007 28.1243,23.593007 18.24109,0 28.13321,-11.212253 28.13321,-24.181717 0,-12.487792 -11.28362,-22.299628 -28.59705,-22.299628 -16.38576,0 -27.65154,11.212253 -27.65154,22.897258 z"
     id="path1070"
     inkscape:connector-curvature="0"
     style="fill:#58574b;stroke-width:0.89198512" />
  <path
     class="cls-1"
     d="m 264.00976,32.289862 h 0.3122 c 2.78299,-4.905918 7.88515,-8.179504 15.4581,-8.179504 a 23.093495,23.093495 0 0 1 7.57295,1.284459 l -3.71957,4.656162 a 11.98828,11.98828 0 0 0 -4.9416,-1.052542 c -15.60974,0 -14.68208,14.717755 -14.68208,22.656423 v 27.57126 h -6.95748 V 25.261019 h 6.95748 v 7.011003 z"
     id="path1072"
     inkscape:connector-curvature="0"
     style="fill:#58574b;stroke-width:0.89198512" />
  <polygon
     class="cls-1"
     points="337.65,28.34 337.65,88.84 329.86,88.84 329.86,28.34 "
     id="polygon1074"
     transform="scale(0.89198514)"
     style="fill:#58574b" />
  <path
     class="cls-1"
     d="m 338.05345,35.090696 a 10.427306,10.427306 0 0 0 -9.60668,-6.074419 c -4.6294,0 -9.37476,3.737417 -9.37476,8.41142 0,12.960544 26.68819,6.654209 26.68819,26.170844 0,9.927794 -7.83163,16.822839 -17.67022,16.822839 -9.13393,0 -16.60877,-5.485708 -18.85657,-14.271762 l 5.21811,-1.632333 c 2.01589,6.422293 6.40446,10.980337 13.63846,10.980337 a 12.157757,12.157757 0 0 0 12.32723,-12.148837 c 0,-6.654209 -5.21811,-8.759294 -10.70382,-10.632463 -7.46592,-2.675956 -16.01114,-5.842503 -16.01114,-14.949671 0,-8.179504 7.00209,-13.665212 14.94076,-13.665212 5.5749,0 11.5958,3.621459 13.99524,8.643336 l -4.6294,2.337001 z"
     id="path1076"
     inkscape:connector-curvature="0"
     style="fill:#58574b;stroke-width:0.89198512" />
  <path
     class="cls-2"
     d="M 306.92317,9.2320462 A 9.2231264,9.2231264 0 1 1 297.65544,0 a 9.2320462,9.2320462 0 0 1 9.23205,9.2320462 z"
     id="path1078"
     inkscape:connector-curvature="0"
     style="fill:#ec1c24;stroke-width:0.89198512" />
  <path
     class="cls-3"
     d="m 359.66625,32.43258 v 23.816003 h 0.12488 a 9.3747638,9.3747638 0 0 1 8.42926,-4.843479 c 7.32319,0 9.35692,4.361807 9.35692,11.38173 V 79.24396 h -2.76515 V 62.795754 c 0,-4.896998 -0.61547,-8.919851 -6.83261,-8.919851 -7.13588,0 -8.3133,6.368774 -8.3133,11.916921 V 79.24396 H 356.9011 V 32.43258 Z"
     id="path1080"
     inkscape:connector-curvature="0"
     style="fill:#808184;stroke-width:0.89198512" />
  <path
     class="cls-3"
     d="m 414.02382,65.623347 c 0,8.081385 -6.58285,14.218243 -14.95859,14.218243 -8.18842,0 -14.77127,-6.431213 -14.77127,-14.155804 a 14.503678,14.503678 0 0 1 14.77127,-14.271762 c 8.37574,0 14.95859,6.136857 14.95859,14.218243 z m -26.95579,0.06244 a 11.800963,11.800963 0 0 0 11.80989,11.640406 c 6.95748,0 12.37183,-5.075395 12.37183,-11.676086 0,-6.60069 -5.35191,-11.800963 -12.37183,-11.800963 a 11.783124,11.783124 0 0 0 -11.81881,11.881242 z"
     id="path1082"
     inkscape:connector-curvature="0"
     style="fill:#808184;stroke-width:0.89198512" />
  <polygon
     class="cls-3"
     points="468.51,61.07 468.51,58.3 472.03,58.3 472.03,47.38 475.13,47.38 475.13,58.3 480.72,58.3 480.72,61.07 475.13,61.07 475.13,88.85 472.03,88.85 472.03,61.07 "
     id="polygon1084"
     transform="scale(0.89198514)"
     style="fill:#808184" />
  <path
     class="cls-3"
     d="m 433.59398,65.864183 c -0.18732,6.903965 4.79888,11.506608 11.39065,11.506608 a 11.42633,11.42633 0 0 0 10.03483,-6.199296 l 2.337,1.293378 a 13.959567,13.959567 0 0 1 -12.74647,7.376717 c -8.42926,0 -13.79009,-6.547171 -13.79009,-14.271762 0,-7.724592 5.47679,-14.155804 13.79009,-14.155804 8.61658,0 13.72766,6.60961 13.66522,14.459079 z m 21.94283,-2.479719 a 10.980337,10.980337 0 0 0 -10.83762,-9.499642 c -5.78898,0 -10.58786,4.361808 -11.07845,9.499642 z"
     id="path1086"
     inkscape:connector-curvature="0"
     style="fill:#808184;stroke-width:0.89198512" />
  <polygon
     class="cls-3"
     points="524.41,36.36 524.41,88.85 521.3,88.85 521.3,36.36 "
     id="polygon1088"
     transform="scale(0.89198514)"
     style="fill:#808184" />
  <polygon
     class="cls-3"
     points="524.35,98.79 524.35,102.93 6.55,102.93 6.55,98.79 "
     id="polygon1090"
     transform="scale(0.89198514)"
     style="fill:#808184" />
  <path
     class="cls-1"
     d="m 351.45107,97.743732 h 0.9901 v 9.811838 h 0.0446 a 4.7096816,4.7096816 0 0 1 3.94257,-1.98913 c 3.05059,0 5.00404,2.28348 5.00404,5.27163 0,2.98815 -1.94453,5.40543 -5.04864,5.40543 a 4.5758838,4.5758838 0 0 1 -3.89797,-2.06048 h -0.0446 v 1.83749 h -0.9901 z m 8.98229,13.085418 a 4.1566508,4.1566508 0 0 0 -3.98718,-4.33504 c -2.58675,0 -4.07637,1.92668 -4.07637,4.3618 0,2.43512 1.50746,4.45993 4.02285,4.45993 2.5154,0 4.03178,-2.12293 4.03178,-4.45993 z"
     id="path1092"
     inkscape:connector-curvature="0"
     style="fill:#58574b;stroke-width:0.89198512" />
  <polygon
     class="cls-1"
     points="416.28,118.59 417.42,118.59 409.73,136.76 408.58,136.76 411.34,130.25 405.83,118.59 407,118.59 411.89,128.97 "
     id="polygon1094"
     transform="scale(0.89198514)"
     style="fill:#58574b" />
  <path
     class="cls-1"
     d="m 391.09089,103.46136 a 4.5758838,4.5758838 0 0 0 -2.88112,-1.10606 c -0.79386,0 -1.85533,0.46383 -1.85533,1.39149 0,0.92767 1.17742,1.3469 1.92669,1.58774 l 1.10606,0.33003 c 2.32809,0.68683 4.11206,1.85533 4.11206,4.55804 a 5.6730255,5.6730255 0 0 1 -1.72154,4.45993 7.3321179,7.3321179 0 0 1 -4.73644,1.56989 10.302428,10.302428 0 0 1 -5.86926,-1.89992 l 1.85533,-3.49659 a 5.9495409,5.9495409 0 0 0 3.85338,1.73045 c 1.01686,0 2.10508,-0.50843 2.10508,-1.68585 0,-1.17742 -1.70369,-1.63233 -2.67595,-1.89993 -2.72056,-0.77602 -4.51345,-1.48069 -4.51345,-4.7186 0,-3.38954 2.40836,-5.601664 5.7533,-5.601664 a 11.40849,11.40849 0 0 1 5.22704,1.373654 l -1.72153,3.36279 z"
     id="path1096"
     inkscape:connector-curvature="0"
     style="fill:#58574b;stroke-width:0.89198512" />
  <path
     class="cls-1"
     d="m 407.89589,115.85995 h -4.02286 v -1.26662 h -0.0714 a 3.9871736,3.9871736 0 0 1 -3.43414,1.64125 6.065499,6.065499 0 0 1 0,-12.10423 4.6294029,4.6294029 0 0 1 3.52334,1.48069 v -1.10606 h 4.02286 v 11.35497 z m -9.07149,-5.66411 a 2.5912168,2.5912168 0 0 0 5.18243,0 2.5912168,2.5912168 0 0 0 -5.18243,0 z"
     id="path1098"
     inkscape:connector-curvature="0"
     style="fill:#58574b;stroke-width:0.89198512" />
  <path
     class="cls-1"
     d="m 414.61253,105.95892 v 0 a 3.9247346,3.9247346 0 0 1 3.63038,-1.83749 c 3.05951,0 4.27261,1.92668 4.27261,4.70968 v 7.01992 h -4.03177 v -5.52139 c 0,-1.08822 0.1784,-2.98815 -1.78397,-2.98815 -1.64125,0 -2.10509,1.22202 -2.10509,2.67596 v 5.8871 h -4.01393 v -11.40849 h 4.03177 z"
     id="path1100"
     inkscape:connector-curvature="0"
     style="fill:#58574b;stroke-width:0.89198512" />
  <polygon
     class="cls-1"
     points="475.68,120.88 475.68,117.15 477.14,117.15 477.14,113.33 481.66,113.33 481.66,117.15 484.21,117.15 484.21,120.88 481.66,120.88 481.66,129.88 477.14,129.88 477.14,120.88 "
     id="polygon1102"
     transform="scale(0.89198514)"
     style="fill:#58574b" />
  <path
     class="cls-1"
     d="m 437.46519,100.14317 a 2.2567224,2.2567224 0 1 1 -2.25672,-2.26564 2.2656423,2.2656423 0 0 1 2.25672,2.26564 z m -0.24083,15.71678 h -3.98718 v -11.36389 h 4.03178 v 11.36389 z"
     id="path1104"
     inkscape:connector-curvature="0"
     style="fill:#58574b;stroke-width:0.89198512" />
  <polygon
     class="cls-1"
     points="502.16,123.04 508.94,129.88 502.61,129.88 497.67,124.7 497.67,129.88 493.15,129.88 493.15,109.29 497.67,109.29 497.67,121.75 502.36,117.15 508.54,117.15 "
     id="polygon1106"
     transform="scale(0.89198514)"
     style="fill:#58574b" />
  <path
     class="cls-1"
     d="m 467.54293,115.85995 h -4.03177 v -1.26662 0 a 3.9871736,3.9871736 0 0 1 -3.43414,1.64125 6.0745514,6.0745514 0 0 1 -0.0803,-12.14883 4.6294029,4.6294029 0 0 1 3.51442,1.48069 v -1.10606 h 4.03177 z m -9.08041,-5.66411 a 2.59122,2.59122 0 0 0 5.18244,0 2.59122,2.59122 0 0 0 -5.18244,0 z"
     id="path1108"
     inkscape:connector-curvature="0"
     style="fill:#58574b;stroke-width:0.89198512" />
</svg>
