<?xml version="1.0" encoding="UTF-8" standalone="no"?>
<!-- Created with Inkscape (http://www.inkscape.org/) -->

<svg
   xmlns:dc="http://purl.org/dc/elements/1.1/"
   xmlns:cc="http://creativecommons.org/ns#"
   xmlns:rdf="http://www.w3.org/1999/02/22-rdf-syntax-ns#"
   xmlns:svg="http://www.w3.org/2000/svg"
   xmlns="http://www.w3.org/2000/svg"
   xmlns:sodipodi="http://sodipodi.sourceforge.net/DTD/sodipodi-0.dtd"
   xmlns:inkscape="http://www.inkscape.org/namespaces/inkscape"
   width="191.5mm"
   height="72.736504mm"
   viewBox="0 0 191.5 72.736504"
   version="1.1"
   id="svg15983"
   inkscape:version="0.92.0 r15299"
   sodipodi:docname="santika indonesia.svg">
  <defs
     id="defs15977">
    <style
       id="style15985">.cls-1{fill:#fff;}</style>
  </defs>
  <sodipodi:namedview
     id="base"
     pagecolor="#ffffff"
     bordercolor="#666666"
     borderopacity="1.0"
     inkscape:pageopacity="0.0"
     inkscape:pageshadow="2"
     inkscape:zoom="0.76710385"
     inkscape:cx="485.71427"
     inkscape:cy="238.11593"
     inkscape:document-units="mm"
     inkscape:current-layer="layer1"
     showgrid="false"
     fit-margin-top="0"
     fit-margin-left="0"
     fit-margin-right="0"
     fit-margin-bottom="0"
     units="mm"
     inkscape:window-width="1280"
     inkscape:window-height="744"
     inkscape:window-x="-4"
     inkscape:window-y="-4"
     inkscape:window-maximized="1" />
  <metadata
     id="metadata15980">
    <rdf:RDF>
      <cc:Work
         rdf:about="">
        <dc:format>image/svg+xml</dc:format>
        <dc:type
           rdf:resource="http://purl.org/dc/dcmitype/StillImage" />
        <dc:title></dc:title>
      </cc:Work>
    </rdf:RDF>
  </metadata>
  <g
     inkscape:label="Layer 1"
     inkscape:groupmode="layer"
     id="layer1"
     transform="translate(-12.851192,-288.10201)">
    <g
       id="g16031"
       style="fill:#331918;fill-opacity:1"
       transform="translate(0.500001,-0.4999846)">
      <path
         id="path15991"
         class="cls-1"
         d="m 14.695338,332.61537 a 7.4400832,7.4400832 0 0 0 1.799166,1.54253 3.4925,3.4925 0 0 0 1.762125,0.508 2.0240625,2.0240625 0 0 0 1.344084,-0.43921 1.3917083,1.3917083 0 0 0 0.529166,-1.11125 1.4605,1.4605 0 0 0 -0.449791,-1.15359 q -0.457729,-0.40481 -2.058459,-0.83343 -2.20927,-0.58209 -3.122083,-1.54517 -0.912812,-0.96308 -0.907521,-2.60615 a 4.6037499,4.6037499 0 0 1 1.436688,-3.50573 q 1.439333,-1.35466 3.730625,-1.35731 a 8.1571041,8.1571041 0 0 1 2.354791,0.33338 7.6199999,7.6199999 0 0 1 2.116667,1.00541 l -1.280583,2.93688 a 5.3763333,5.3763333 0 0 0 -1.42875,-0.89429 3.7835416,3.7835416 0 0 0 -1.447271,-0.30163 1.9182291,1.9182291 0 0 0 -1.195917,0.35454 1.0927292,1.0927292 0 0 0 -0.468312,0.90752 1.1191875,1.1191875 0 0 0 0.404812,0.89959 q 0.402167,0.33602 1.55575,0.64294 l 0.185209,0.0529 q 2.497666,0.67469 3.286125,1.48167 a 3.65125,3.65125 0 0 1 0.809625,1.32292 5.0588333,5.0588333 0 0 1 0.264583,1.7145 q 0,2.38125 -1.566333,3.83645 -1.566334,1.45521 -4.180417,1.44463 A 7.4083332,7.4083332 0 0 1 15.3224,337.32231 8.0486249,8.0486249 0 0 1 12.851192,335.6475 l 1.852083,-3.03477 z M 33.814129,332.282 a 2.7252083,2.7252083 0 0 0 -0.645583,-1.91558 2.2595416,2.2595416 0 0 0 -1.738313,-0.70644 2.2489583,2.2489583 0 0 0 -1.754187,0.6985 2.7357916,2.7357916 0 0 0 -0.640292,1.91823 2.69875,2.69875 0 0 0 0.642938,1.89971 2.270125,2.270125 0 0 0 1.754187,0.69585 2.2807083,2.2807083 0 0 0 1.759479,-0.69321 2.6908125,2.6908125 0 0 0 0.621771,-1.905 m 3.209396,-5.15408 v 10.33198 h -3.341687 v -1.67746 a 4.7942499,4.7942499 0 0 1 -1.613959,1.5875 4.2333333,4.2333333 0 0 1 -2.100791,0.50271 4.0587083,4.0587083 0 0 1 -3.299355,-1.52136 q -1.238249,-1.50812 -1.238249,-4.04812 0,-2.54 1.296458,-4.01638 1.291166,-1.4896 3.481916,-1.4896 a 3.889375,3.889375 0 0 1 2.010834,0.49742 4.1486666,4.1486666 0 0 1 1.449916,1.53458 v -1.69863 z m 2.767542,10.33727 v -10.33463 h 3.339041 v 2.1008 a 5.0482499,5.0482499 0 0 1 1.677459,-1.85209 4.2677291,4.2677291 0 0 1 2.280708,-0.58208 4.6434374,4.6434374 0 0 1 1.783292,0.3175 3.1406041,3.1406041 0 0 1 1.27,0.92604 3.175,3.175 0 0 1 0.582083,1.27 10.567458,10.567458 0 0 1 0.177271,2.23573 v 5.91344 h -3.645959 v -5.53509 q 0,-1.23825 -0.402166,-1.79916 a 1.4816666,1.4816666 0 0 0 -1.296459,-0.56621 1.8071041,1.8071041 0 0 0 -1.656291,0.83608 q -0.529167,0.83873 -0.529167,2.72521 v 4.33917 z m 21.023791,-13.56254 a 1.9102916,1.9102916 0 0 1 0.587375,-1.40759 2.0558125,2.0558125 0 0 1 2.8575,0 1.9155833,1.9155833 0 0 1 0.582083,1.42082 1.9711458,1.9711458 0 0 1 -0.59002,1.44198 1.9420416,1.9420416 0 0 1 -1.42875,0.59002 1.9182291,1.9182291 0 0 1 -1.412875,-0.60325 1.9685,1.9685 0 0 1 -0.592667,-1.42875 m 0.185208,3.22791 h 3.65125 v 10.33198 h -3.648604 v -10.34521 z m 6.44525,10.3214 v -15.86442 h 3.585104 v 10.04359 l 3.757084,-4.51115 h 4.524374 l -4.648729,4.97417 5.064125,5.36046 h -4.799541 l -3.897313,-4.59582 v 4.59317 z M 88.416191,332.282 a 2.7252083,2.7252083 0 0 0 -0.642937,-1.91558 2.54,2.54 0 0 0 -3.511021,0 2.7357916,2.7357916 0 0 0 -0.640292,1.91823 2.69875,2.69875 0 0 0 0.642938,1.905 2.5585208,2.5585208 0 0 0 3.51102,0 2.6881666,2.6881666 0 0 0 0.645584,-1.905 m 3.214687,-5.15409 v 10.33198 h -3.354916 v -1.67746 a 4.7942499,4.7942499 0 0 1 -1.613959,1.5875 4.2333333,4.2333333 0 0 1 -2.100791,0.50271 4.0560624,4.0560624 0 0 1 -3.307292,-1.51342 q -1.235604,-1.50812 -1.235604,-4.04812 0,-2.54 1.296458,-4.01373 1.291167,-1.4896 3.481917,-1.4896 a 3.8840833,3.8840833 0 0 1 2.010833,0.49741 4.1327916,4.1327916 0 0 1 1.447271,1.53459 v -1.69863 z m 9.6811,-4.65931 h 4.1275 v 14.986 h -4.1275 z m 7.15434,14.986 v -10.33463 h 3.33904 v 2.1008 a 5.0535416,5.0535416 0 0 1 1.67746,-1.85209 4.2650833,4.2650833 0 0 1 2.28071,-0.58208 4.6407916,4.6407916 0 0 1 1.78329,0.3175 3.14325,3.14325 0 0 1 1.27,0.92604 3.175,3.175 0 0 1 0.58208,1.27 10.583333,10.583333 0 0 1 0.17727,2.23573 v 5.91344 h -3.65125 v -5.53509 q 0,-1.23825 -0.40217,-1.79916 a 1.4816666,1.4816666 0 0 0 -1.29645,-0.56621 1.8071041,1.8071041 0 0 0 -1.65365,0.83608 q -0.52917,0.83873 -0.52917,2.72521 v 4.33917 z m 21.59,-5.15673 a 2.7093333,2.7093333 0 0 0 -0.635,-1.905 2.524125,2.524125 0 0 0 -3.47927,0 3.190875,3.190875 0 0 0 0,3.81 2.54,2.54 0 0 0 3.48456,0 2.7119791,2.7119791 0 0 0 0.635,-1.905 m 3.22792,-10.71033 v 15.875 h -3.35492 v -1.68011 a 4.9477083,4.9477083 0 0 1 -1.56633,1.56104 3.7041666,3.7041666 0 0 1 -1.93146,0.52917 q -2.18282,0 -3.47134,-1.50812 -1.28852,-1.50813 -1.28852,-4.05342 0,-2.46592 1.28323,-3.98727 a 4.1804166,4.1804166 0 0 1 3.34963,-1.52136 4.2677291,4.2677291 0 0 1 2.13254,0.47625 4.1698333,4.1698333 0 0 1 1.46579,1.5875 q -0.0609,-0.37041 -0.09,-0.83872 c -0.0212,-0.31221 -0.0317,-0.64823 -0.0317,-1.01071 v -5.42396 z m 10.05681,10.72621 a 2.6722916,2.6722916 0 0 0 -0.58209,-1.82563 2.2039791,2.2039791 0 0 0 -3.15647,0 3.175,3.175 0 0 0 0,3.64331 2.2304375,2.2304375 0 0 0 3.175,0 2.6722916,2.6722916 0 0 0 0.57679,-1.81768 m 3.62479,0 a 5.2652083,5.2652083 0 0 1 -0.43392,2.11666 5.5879999,5.5879999 0 0 1 -1.26471,1.79917 5.8208333,5.8208333 0 0 1 -1.87854,1.21179 6.2044791,6.2044791 0 0 1 -4.43441,0 5.5985833,5.5985833 0 0 1 -1.85209,-1.2065 5.3392916,5.3392916 0 0 1 -1.71185,-3.91583 5.5297916,5.5297916 0 0 1 3.52689,-5.13292 6.4426041,6.4426041 0 0 1 4.47146,0 5.6885416,5.6885416 0 0 1 3.12209,3.00038 5.3445833,5.3445833 0 0 1 0.42862,2.11666"
         inkscape:connector-curvature="0"
         style="fill:#331918;fill-opacity:1;stroke-width:0.26458332" />
      <path
         id="path15993"
         class="cls-1"
         d="m 149.06663,337.45725 v -10.33463 h 3.33904 v 2.1008 a 5.0614791,5.0614791 0 0 1 1.67746,-1.85209 4.2703749,4.2703749 0 0 1 2.27541,-0.58208 4.6407916,4.6407916 0 0 1 1.78594,0.3175 3.1485416,3.1485416 0 0 1 1.27529,0.92604 3.20675,3.20675 0 0 1 0.58209,1.27 10.646833,10.646833 0 0 1 0.17462,2.23573 v 5.91344 h -3.65125 v -5.53509 q 0,-1.23825 -0.40216,-1.79916 a 1.4816666,1.4816666 0 0 0 -1.29117,-0.56621 1.8071041,1.8071041 0 0 0 -1.65629,0.83608 q -0.52917,0.83873 -0.52917,2.72521 v 4.33917 z m 20.82271,-6.49817 a 2.2225,2.2225 0 0 0 -0.67205,-1.41552 1.9685,1.9685 0 0 0 -1.40229,-0.52916 2.0108333,2.0108333 0 0 0 -1.42081,0.47625 2.524125,2.524125 0 0 0 -0.70379,1.4605 z m 3.5851,2.05317 h -7.85812 q 0,1.19856 0.61383,1.85208 a 2.2225,2.2225 0 0 0 1.71185,0.64823 2.8707291,2.8707291 0 0 0 1.40229,-0.30956 2.0293541,2.0293541 0 0 0 0.86255,-0.92604 l 2.74372,1.10596 a 3.571875,3.571875 0 0 1 -1.74095,1.8362 6.5987083,6.5987083 0 0 1 -3.06388,0.64559 q -2.70404,0 -4.33916,-1.50019 -1.63513,-1.50019 -1.62984,-3.96875 a 5.3816249,5.3816249 0 0 1 1.63248,-4.01108 5.6620833,5.6620833 0 0 1 4.1275,-1.5875 q 2.57175,0 4.05342,1.61925 1.48166,1.61925 1.48166,4.43177 v 0.17727 z m 1.13506,3.58246 0.75671,-2.78606 a 5.9266666,5.9266666 0 0 0 1.75419,1.05833 5.2652083,5.2652083 0 0 0 1.93146,0.37571 1.9976041,1.9976041 0 0 0 1.0451,-0.2249 0.70643749,0.70643749 0 0 0 0.35983,-0.64029 q 0,-0.68792 -1.44727,-1.02394 c -0.3175,-0.0741 -0.56885,-0.14023 -0.762,-0.19314 q -1.63512,-0.4498 -2.38125,-1.18269 a 2.5532291,2.5532291 0 0 1 -0.74083,-1.89971 2.9104166,2.9104166 0 0 1 1.13242,-2.40771 q 1.13241,-0.89958 3.06387,-0.89958 a 9.1281249,9.1281249 0 0 1 2.02142,0.23283 11.075458,11.075458 0 0 1 2.10344,0.71438 l -0.75671,2.51354 a 6.2229999,6.2229999 0 0 0 -1.47373,-0.74877 4.5693541,4.5693541 0 0 0 -1.4949,-0.26459 1.8309166,1.8309166 0 0 0 -0.94191,0.1958 0.62441666,0.62441666 0 0 0 -0.3175,0.56356 q 0,0.55562 1.43668,0.93133 c 0.21696,0.0635 0.38365,0.10584 0.49213,0.13229 q 1.89441,0.54505 2.63525,1.2753 a 2.6458333,2.6458333 0 0 1 0.74083,1.97908 3.127375,3.127375 0 0 1 -1.21708,2.56117 q -1.21709,0.97895 -3.22263,0.97895 a 9.7895832,9.7895832 0 0 1 -2.52941,-0.3175 8.1491666,8.1491666 0 0 1 -2.19075,-0.94456"
         inkscape:connector-curvature="0"
         style="fill:#331918;fill-opacity:1;stroke-width:0.26458332" />
      <path
         id="path15995"
         class="cls-1"
         d="m 185.65056,323.89471 a 1.905,1.905 0 0 1 0.59003,-1.40759 1.9420416,1.9420416 0 0 1 1.41816,-0.58208 1.9658541,1.9658541 0 0 1 1.43669,0.5715 1.9182291,1.9182291 0 0 1 0.58208,1.42081 1.9711458,1.9711458 0 0 1 -0.59266,1.44463 1.9420416,1.9420416 0 0 1 -1.42875,0.59002 1.9155833,1.9155833 0 0 1 -1.41552,-0.60854 1.9658541,1.9658541 0 0 1 -0.59532,-1.42875 m 0.18521,3.22791 h 3.65125 v 10.33463 h -3.64596 v -10.33463 z m 14.31131,5.15938 a 2.7252083,2.7252083 0 0 0 -0.64558,-1.91558 2.54,2.54 0 0 0 -3.51367,0 2.7437291,2.7437291 0 0 0 -0.64029,1.91823 2.6934583,2.6934583 0 0 0 0.64559,1.905 2.5585208,2.5585208 0 0 0 3.50837,0 2.6908125,2.6908125 0 0 0 0.64558,-1.905 m 3.2094,-5.15409 v 10.33198 h -3.35227 v -1.67746 a 4.7836666,4.7836666 0 0 1 -1.61396,1.5875 4.2333333,4.2333333 0 0 1 -2.10079,0.50271 4.0560624,4.0560624 0 0 1 -3.30729,-1.51342 q -1.23825,-1.50812 -1.23825,-4.04812 0,-2.54 1.29646,-4.01373 1.29645,-1.4896 3.48456,-1.4896 a 3.8761458,3.8761458 0 0 1 2.01083,0.49741 4.1274999,4.1274999 0 0 1 1.44727,1.53459 v -1.69863 z m -83.76708,-17.52335 a 9.9959582,9.9959582 0 0 1 -3.31523,-0.5715 c -1.12448,-0.40217 -1.89706,-0.88636 -2.24102,-1.3679 -1.13771,-1.5531 -1.27529,-2.16958 -1.27529,-4.18041 0,-0.64559 0.48683,-1.68011 0.48683,-1.68011 0.28575,-0.508 2.38125,-2.19604 4.55083,-0.86783 2.159,1.61396 -0.47625,3.49779 -1.66687,1.72773 -0.44979,1.68539 1.21708,3.27289 3.32052,3.27289 3.07446,0 3.36814,-6.01927 -0.76729,-6.56166 -0.35719,-0.0317 -3.15384,-0.16669 -3.15384,-1.63513 4.064,-3.59039 -2.09814,-4.37621 -1.10066,-6.61458 1.13241,-1.16417 3.50837,-2.02671 5.16202,-2.02671 a 9.3503749,9.3503749 0 0 1 2.11666,0.25135 c 0.58209,0.1323 2.413,0.91811 2.9898,1.39436 0.22225,-0.0661 0.8255,-1.47638 2.11666,-1.143 0.77523,0.21166 1.45521,1.78594 1.66688,4.85775 -0.0952,1.26206 -0.74084,1.56104 -1.25148,1.5875 -1.01865,-0.0159 -1.01865,-1.00542 -2.95804,-2.40771 -1.5875,-1.01335 -2.27542,-1.51342 -4.02167,-1.42081 -0.74083,0.0397 -1.43933,0.74877 -1.35467,1.46579 0.15082,1.41023 1.40229,2.05581 3.175,3.12208 1.68804,0.76729 4.7625,2.31246 4.7625,5.90021 0,2.11667 -0.52916,3.72269 -1.85208,4.96623 -1.32292,1.24354 -3.19088,1.94733 -5.37104,1.94733 m -24.669752,-1.44462 c 0.116417,-0.93134 2.402417,-1.37584 2.090209,-3.91054 -0.01852,-0.83609 0.02646,-2.2278 0.02646,-4.02167 0,-2.24896 -0.05292,-4.08517 -0.0344,-5.00063 0.01852,-0.91545 -0.150812,-1.32291 -0.291041,-1.5875 -1.608667,-2.9501 -6.879167,0.12171 -6.244167,3.22792 0.127,0.65088 0.312208,1.11919 0.759354,1.38642 a 1.6218958,1.6218958 0 0 1 0.846667,-0.86784 c 2.645833,-0.64293 3.889375,4.39738 -0.216958,4.43971 0,0 -3.58775,-0.16668 -3.069167,-4.93183 0.759354,-4.86833 5.124979,-6.69396 8.183562,-6.61458 1.455209,0.0423 3.720043,0.0159 5.053543,0 1.22767,-0.0926 2.62996,0.76729 1.56104,1.94468 -0.13229,0.15082 -1.5875,0.41011 -1.5875,1.37055 0,0.52916 0,1.80445 0,2.51354 0,0.70908 0.22225,1.5875 0.89959,1.5875 h 2.87072 c 0.40217,0 0.74878,-0.87313 0.74878,-1.68804 v -2.42094 a 1.4499166,1.4499166 0 0 0 -0.88107,-1.24354 c -1.42875,-1.05834 0.13229,-2.20398 1.30175,-2.06905 0.64823,0 0.79375,0 2.50296,0 1.46315,0 2.7305,0 3.36021,0 1.1774,-0.12435 1.85208,0.88636 1.65629,1.41817 0,1.32292 -1.71979,1.89442 -1.71979,1.89442 -0.66146,0.11641 -2.42888,0.97896 -2.88925,2.42887 -0.22754,0.70909 0.8546,3.13002 2.88396,0.8599 -0.26459,3.78354 -5.42925,-0.508 -5.79967,4.09046 -0.0265,1.87854 1.29646,2.57439 2.52942,2.46062 -0.99219,-1.1721 -0.99219,-2.8575 0.82021,-2.8575 0.5027,0 1.70656,0.46831 1.32291,1.26206 -0.87312,1.5875 -1.07156,2.06905 -1.08479,4.11428 0,0 0,1.27 0.52917,2.1537 0.23019,0.56886 -0.45773,1.07686 -2.44211,1.07686 -0.44979,0 -2.42623,0.14287 -3.30729,-0.41804 -1.15887,-1.10332 1.34938,-1.77271 1.22502,-2.88396 v -3.45017 c 0,-0.6985 -0.42333,-1.45521 -0.96573,-1.44992 -0.11641,0 -0.40216,0 -1.05833,0 -0.46037,0 -1.22502,-0.0159 -1.68804,0.0265 -0.82021,0.26459 -0.81492,1.40759 -0.81492,1.62454 0,0.85196 0,2.83105 0,3.31523 0.0688,1.29117 1.89707,1.80711 0.85725,2.80988 -0.60325,0.46831 -1.41816,0.44185 -3.307291,0.44185 -1.322917,0 -2.645833,0 -3.122083,0 -1.534584,0 -1.481667,-0.71437 -1.481667,-1.03187"
         inkscape:connector-curvature="0"
         style="fill:#331918;fill-opacity:1;stroke-width:0.26458332" />
      <path
         id="path15997"
         class="cls-1"
         d="M 59.592483,329.81344 V 327.6174 H 56.94665 v -3.52955 h -3.4925 v 3.52955 H 52.0254 v 2.19604 h 1.42875 v 4.55083 c 0,2.71727 2.005541,4.1275 5.450416,3.20146 l -0.185208,-2.38125 c -0.510646,0.26458 -1.772708,0.48419 -1.772708,-0.68792 v -4.68312 z M 47.265546,354.81392 V 350.824 h -1.095375 v 9.83456 h 1.095375 v -4.82864 h 5.027083 v 4.82864 h 1.100667 V 350.824 h -1.095375 v 3.99521 z m 13.446125,-4.15925 a 5.0879374,5.0879374 0 1 0 5.114395,5.09852 5.1329166,5.1329166 0 0 0 -5.117041,-5.09588 z m 0,1.016 a 4.0692916,4.0692916 0 1 1 -4.03225,4.06929 4.0428333,4.0428333 0 0 1 4.029604,-4.06929 z m 9.868958,0.16933 h 2.402416 v -1.016 h -5.865812 v 1.016 h 2.38125 v 8.81856 h 1.092729 V 351.84 Z m 4.180416,8.81856 h 5.087938 v -1.00542 H 75.853775 V 355.777 h 3.889374 v -1.016 h -3.889374 v -2.91042 h 3.995208 v -1.016 h -5.085292 v 9.83456 z m 8.710084,-9.83456 h -1.095375 v 9.83456 h 3.81 v -1.00542 h -2.714625 z m 9.789583,1.35731 a 2.8231041,2.8231041 0 0 0 -2.54,-1.524 c -1.463146,0 -2.751667,0.97896 -2.751667,2.50296 0,1.41023 0.989542,1.99496 2.135188,2.51883 l 0.597958,0.26459 c 0.912813,0.41804 1.812396,0.80962 1.812396,1.95791 a 1.9764375,1.9764375 0 0 1 -2.018771,1.91823 2.0267083,2.0267083 0 0 1 -1.9685,-1.82562 l -1.058333,0.29898 a 3.1035625,3.1035625 0 0 0 6.138333,-0.49213 c 0,-1.56633 -1.084792,-2.20398 -2.360083,-2.76489 l -0.650875,-0.29105 c -0.661459,-0.29633 -1.539875,-0.68791 -1.539875,-1.53458 a 1.5610416,1.5610416 0 0 1 1.629833,-1.52929 c 0.833438,0 1.304396,0.39158 1.693333,1.05833 l 0.873125,-0.56091 z m 10.226148,2.06375 -0.23813,-0.32544 c -0.26458,-0.39158 -0.59796,-0.7567 -0.59796,-1.25147 a 1.0715625,1.0715625 0 0 1 1.0848,-1.0848 1.0186458,1.0186458 0 0 1 1.05833,1.00542 c 0,0.79375 -0.66146,1.16417 -1.22502,1.5875 l -0.0926,0.0688 z m 3.64066,6.41879 h 1.38377 l -1.67481,-2.15371 1.25148,-1.4605 -0.79375,-0.65352 -1.11125,1.29117 -2.07169,-2.64583 c 0.84667,-0.635 1.73567,-1.27529 1.73567,-2.45004 0,-1.17475 -0.97896,-1.93146 -2.09021,-1.93146 -1.22502,0 -2.15106,0.84666 -2.15106,2.09021 0,0.80698 0.52917,1.47108 0.97896,2.08491 l -0.11642,0.0794 c -1.22766,0.80962 -2.413,1.5875 -2.413,3.23585 0,1.56633 1.37584,2.68817 2.87338,2.68817 1.22502,0 2.27012,-0.76729 3.14325,-1.55046 l 1.05833,1.38377 z m -3.89995,-5.02708 2.1881,2.81781 c -0.70379,0.61648 -1.56633,1.38642 -2.55587,1.38642 a 1.8123958,1.8123958 0 0 1 -1.73303,-1.77271 c 0,-1.00542 0.88636,-1.60337 1.62984,-2.11667 l 0.47096,-0.3122 z m 12.7926,-3.79677 h 0.32544 c 1.32291,0 2.5056,0.15875 2.5056,1.778 0,1.52665 -1.25148,1.76212 -2.49237,1.76212 h -0.34396 v -3.53483 z m 0,4.49792 h 0.26458 l 2.9845,4.32593 h 1.34409 l -3.11944,-4.4106 c 1.51342,-0.13229 2.46592,-1.20385 2.46592,-2.71463 0,-2.2172 -1.73567,-2.71197 -3.59834,-2.71197 h -1.42346 v 9.83191 h 1.09538 v -4.32064 z m 6.61458,4.32064 h 5.10117 v -1.00542 h -3.99785 v -3.8682 h 3.88937 v -1.016 h -3.88937 v -2.91042 h 4.00314 v -1.016 h -5.09587 v 9.83456 z m 12.96459,-8.46666 a 2.8231041,2.8231041 0 0 0 -2.54,-1.52665 c -1.46315,0 -2.75167,0.97896 -2.75167,2.50296 0,1.41023 0.98954,1.99496 2.13519,2.51883 l 0.6006,0.26458 c 0.91017,0.41805 1.80975,0.80963 1.80975,1.95792 a 1.9764375,1.9764375 0 0 1 -2.02142,1.91823 2.0267083,2.0267083 0 0 1 -1.9685,-1.82563 l -1.05833,0.29634 a 3.1035625,3.1035625 0 0 0 6.1304,-0.49742 c 0,-1.56633 -1.08479,-2.20398 -2.36009,-2.76489 l -0.64823,-0.29105 c -0.66145,-0.29633 -1.53987,-0.68791 -1.53987,-1.53458 a 1.5610416,1.5610416 0 0 1 1.62983,-1.52929 c 0.83344,0 1.30175,0.39158 1.69334,1.05833 l 0.87312,-0.56091 z m 7.2337,-1.53459 a 5.0879374,5.0879374 0 1 0 5.12498,5.10646 5.1329166,5.1329166 0 0 0 -5.12762,-5.10646 z m 0,1.01865 a 4.0692916,4.0692916 0 1 1 -4.03225,4.06929 4.0428333,4.0428333 0 0 1 4.02961,-4.06929 z m 8.36084,0.16933 h 0.32279 c 1.32292,0 2.5056,0.15875 2.5056,1.77271 0,1.52929 -1.25412,1.76477 -2.49502,1.76477 h -0.33866 v -3.54806 z m 0,4.49792 h 0.26458 l 2.97127,4.318 h 1.34938 l -3.13002,-4.40796 c 1.51341,-0.13229 2.46591,-1.20121 2.46591,-2.71198 0,-2.21721 -1.73566,-2.71198 -3.59833,-2.71198 h -1.42346 v 9.83456 h 1.09538 v -4.318 z m 8.96937,-4.49792 h 2.40242 v -1.016 h -5.86052 v 1.016 h 2.38125 v 8.81856 h 1.09537 v -8.81856 z m 9.51177,0.33867 a 2.8231041,2.8231041 0 0 0 -2.54,-1.52665 c -1.46314,0 -2.75166,0.97896 -2.75166,2.50296 0,1.40758 0.98954,1.99231 2.13783,2.51354 l 0.6006,0.26458 c 0.91282,0.42334 1.8124,0.81228 1.8124,1.95792 a 1.9764375,1.9764375 0 0 1 -2.02142,1.92088 2.0267083,2.0267083 0 0 1 -1.9685,-1.82563 l -1.05833,0.29898 a 3.1035625,3.1035625 0 0 0 6.14363,-0.49212 c 0,-1.56634 -1.0848,-2.20398 -2.36009,-2.7649 l -0.65352,-0.29104 c -0.66675,-0.29633 -1.54252,-0.68792 -1.54252,-1.53458 a 1.5610416,1.5610416 0 0 1 1.62983,-1.5293 c 0.83344,0 1.3044,0.39159 1.69334,1.05834 l 0.87312,-0.56092 z M 47.265546,354.81392 V 350.824 h -1.095375 v 9.83456 h 1.095375 v -4.82864 h 5.027083 v 4.82864 h 1.100667 V 350.824 h -1.095375 v 3.99521 z m 13.446125,-4.15925 a 5.0879374,5.0879374 0 1 0 5.114395,5.09852 5.1329166,5.1329166 0 0 0 -5.117041,-5.09588 z m 0,1.016 a 4.0692916,4.0692916 0 1 1 -4.03225,4.06929 4.0428333,4.0428333 0 0 1 4.029604,-4.06929 z m 9.868958,0.16933 h 2.402416 v -1.016 h -5.865812 v 1.016 h 2.38125 v 8.81856 h 1.092729 V 351.84 Z m 4.180416,8.81856 h 5.087938 v -1.00542 H 75.853775 V 355.777 h 3.889374 v -1.016 h -3.889374 v -2.91042 h 3.995208 v -1.016 h -5.085292 v 9.83456 z m 8.710084,-9.83456 h -1.095375 v 9.83456 h 3.81 v -1.00542 h -2.714625 z m 9.789583,1.35731 a 2.8231041,2.8231041 0 0 0 -2.54,-1.524 c -1.463146,0 -2.751667,0.97896 -2.751667,2.50296 0,1.41023 0.989542,1.99496 2.135188,2.51883 l 0.597958,0.26459 c 0.912813,0.41804 1.812396,0.80962 1.812396,1.95791 a 1.9764375,1.9764375 0 0 1 -2.018771,1.91823 2.0267083,2.0267083 0 0 1 -1.9685,-1.82562 l -1.058333,0.29898 a 3.1035625,3.1035625 0 0 0 6.138333,-0.49213 c 0,-1.56633 -1.084792,-2.20398 -2.360083,-2.76489 l -0.650875,-0.29105 c -0.661459,-0.29633 -1.539875,-0.68791 -1.539875,-1.53458 a 1.5610416,1.5610416 0 0 1 1.629833,-1.52929 c 0.833438,0 1.304396,0.39158 1.693333,1.05833 l 0.873125,-0.56091 z m 10.226148,2.06375 -0.23813,-0.32544 c -0.26458,-0.39158 -0.59796,-0.7567 -0.59796,-1.25147 a 1.0715625,1.0715625 0 0 1 1.0848,-1.0848 1.0186458,1.0186458 0 0 1 1.05833,1.00542 c 0,0.79375 -0.66146,1.16417 -1.22502,1.5875 l -0.0926,0.0688 z m 3.64066,6.41879 h 1.38377 l -1.67481,-2.15371 1.25148,-1.4605 -0.79375,-0.65352 -1.11125,1.29117 -2.07169,-2.64583 c 0.84667,-0.635 1.73567,-1.27529 1.73567,-2.45004 0,-1.17475 -0.97896,-1.93146 -2.09021,-1.93146 -1.22502,0 -2.15106,0.84666 -2.15106,2.09021 0,0.80698 0.52917,1.47108 0.97896,2.08491 l -0.11642,0.0794 c -1.22766,0.80962 -2.413,1.5875 -2.413,3.23585 0,1.56633 1.37584,2.68817 2.87338,2.68817 1.22502,0 2.27012,-0.76729 3.14325,-1.55046 l 1.05833,1.38377 z m -3.89995,-5.02708 2.1881,2.81781 c -0.70379,0.61648 -1.56633,1.38642 -2.55587,1.38642 a 1.8123958,1.8123958 0 0 1 -1.73303,-1.77271 c 0,-1.00542 0.88636,-1.60337 1.62984,-2.11667 l 0.47096,-0.3122 z m 12.7926,-3.79677 h 0.32544 c 1.32291,0 2.5056,0.15875 2.5056,1.778 0,1.52665 -1.25148,1.76212 -2.49237,1.76212 h -0.34396 v -3.53483 z m 0,4.49792 h 0.26458 l 2.9845,4.32593 h 1.34409 l -3.11944,-4.4106 c 1.51342,-0.13229 2.46592,-1.20385 2.46592,-2.71463 0,-2.2172 -1.73567,-2.71197 -3.59834,-2.71197 h -1.42346 v 9.83191 h 1.09538 v -4.32064 z m 6.61458,4.32064 h 5.10117 v -1.00542 h -3.99785 v -3.8682 h 3.88937 v -1.016 h -3.88937 v -2.91042 h 4.00314 v -1.016 h -5.09587 v 9.83456 z m 12.96459,-8.46666 a 2.8231041,2.8231041 0 0 0 -2.54,-1.52665 c -1.46315,0 -2.75167,0.97896 -2.75167,2.50296 0,1.41023 0.98954,1.99496 2.13519,2.51883 l 0.6006,0.26458 c 0.91017,0.41805 1.80975,0.80963 1.80975,1.95792 a 1.9764375,1.9764375 0 0 1 -2.02142,1.91823 2.0267083,2.0267083 0 0 1 -1.9685,-1.82563 l -1.05833,0.29634 a 3.1035625,3.1035625 0 0 0 6.1304,-0.49742 c 0,-1.56633 -1.08479,-2.20398 -2.36009,-2.76489 l -0.64823,-0.29105 c -0.66145,-0.29633 -1.53987,-0.68791 -1.53987,-1.53458 a 1.5610416,1.5610416 0 0 1 1.62983,-1.52929 c 0.83344,0 1.30175,0.39158 1.69334,1.05833 l 0.87312,-0.56091 z m 7.2337,-1.53459 a 5.0879374,5.0879374 0 1 0 5.12498,5.10646 5.1329166,5.1329166 0 0 0 -5.12762,-5.10646 z m 0,1.01865 a 4.0692916,4.0692916 0 1 1 -4.03225,4.06929 4.0428333,4.0428333 0 0 1 4.02961,-4.06929 z m 8.36084,0.16933 h 0.32279 c 1.32292,0 2.5056,0.15875 2.5056,1.77271 0,1.52929 -1.25412,1.76477 -2.49502,1.76477 h -0.33866 v -3.54806 z m 0,4.49792 h 0.26458 l 2.97127,4.318 h 1.34938 l -3.13002,-4.40796 c 1.51341,-0.13229 2.46591,-1.20121 2.46591,-2.71198 0,-2.21721 -1.73566,-2.71198 -3.59833,-2.71198 h -1.42346 v 9.83456 h 1.09538 v -4.318 z m 8.96937,-4.49792 h 2.40242 v -1.016 h -5.86052 v 1.016 h 2.38125 v 8.81856 h 1.09537 v -8.81856 z m 9.51177,0.33867 a 2.8231041,2.8231041 0 0 0 -2.54,-1.52665 c -1.46314,0 -2.75166,0.97896 -2.75166,2.50296 0,1.40758 0.98954,1.99231 2.13783,2.51354 l 0.6006,0.26458 c 0.91282,0.42334 1.8124,0.81228 1.8124,1.95792 a 1.9764375,1.9764375 0 0 1 -2.02142,1.92088 2.0267083,2.0267083 0 0 1 -1.9685,-1.82563 l -1.05833,0.29898 a 3.1035625,3.1035625 0 0 0 6.14363,-0.49212 c 0,-1.56634 -1.0848,-2.20398 -2.36009,-2.7649 l -0.65352,-0.29104 c -0.66675,-0.29633 -1.54252,-0.68792 -1.54252,-1.53458 a 1.5610416,1.5610416 0 0 1 1.62983,-1.5293 c 0.83344,0 1.3044,0.39159 1.69334,1.05834 l 0.87312,-0.56092 z"
         inkscape:connector-curvature="0"
         style="fill:#331918;fill-opacity:1;stroke-width:0.26458332" />
    </g>
  </g>
</svg>
